{
  "accessors": [
    {
      "bufferView": 2,
      "componentType": 5126,
      "count": 4130,
      "max": [
        1.5474817752838135,
        1.6703133583068848,
        0.5146080851554871
      ],
      "min": [
        -1.5474817752838135,
        -1.4882135391235352,
        -0.527820885181427
      ],
      "type": "VEC3"
    },
    {
      "bufferView": 2,
      "byteOffset": 49560,
      "componentType": 5126,
      "count": 4130,
      "max": [
        1.0,
        1.0,
        1.0
      ],
      "min": [
        -1.0,
        -1.0,
        -1.0
      ],
      "type": "VEC3"
    },
    {
      "bufferView": 3,
      "componentType": 5126,
      "count": 4130,
      "max": [
        1.0,
        1.0,
        1.0,
        1.0
      ],
      "min": [
        -1.0,
        -1.0,
        -1.0,
        1.0
      ],
      "type": "VEC4"
    },
    {
      "bufferView": 1,
      "componentType": 5126,
      "count": 4130,
      "max": [
        0.9436227679252625,
        0.9831843376159668
      ],
      "min": [
        0.016815630719065666,
        0.016815613955259323
      ],
      "type": "VEC2"
    },
    {
      "bufferView": 1,
      "byteOffset": 33040,
      "componentType": 5126,
      "count": 4130,
      "max": [
        0.9436227679252625,
        0.9831843376159668
      ],
      "min": [
        0.016815630719065666,
        0.016815613955259323
      ],
      "type": "VEC2"
    },
    {
      "bufferView": 1,
      "byteOffset": 66080,
      "componentType": 5126,
      "count": 4130,
      "max": [
        0.9436227679252625,
        0.9831843376159668
      ],
      "min": [
        0.016815630719065666,
        0.016815613955259323
      ],
      "type": "VEC2"
    },
    {
      "bufferView": 0,
      "componentType": 5125,
      "count": 8769,
      "type": "SCALAR"
    },
    {
      "bufferView": 2,
      "byteOffset": 99120,
      "componentType": 5126,
      "count": 712,
      "max": [
        0.3538326919078827,
        0.9299179315567017,
        1.7932541370391846
      ],
      "min": [
        -0.783984899520874,
        -0.966320812702179,
        -1.8551826477050781
      ],
      "type": "VEC3"
    },
    {
      "bufferView": 2,
      "byteOffset": 107664,
      "componentType": 5126,
      "count": 712,
      "max": [
        1.0,
        1.0,
        1.0
      ],
      "min": [
        -1.0,
        -1.0,
        -1.0
      ],
      "type": "VEC3"
    },
    {
      "bufferView": 3,
      "byteOffset": 66080,
      "componentType": 5126,
      "count": 712,
      "max": [
        0.9552276134490967,
        0.9999324679374695,
        1.0,
        1.0
      ],
      "min": [
        -0.9999947547912598,
        -0.9999961256980896,
        -1.0,
        -1.0
      ],
      "type": "VEC4"
    },
    {
      "bufferView": 1,
      "byteOffset": 99120,
      "componentType": 5126,
      "count": 712,
      "max": [
        0.9848710298538208,
        0.9548887014389038
      ],
      "min": [
        0.01512890588492155,
        0.015128950588405132
      ],
      "type": "VEC2"
    },
    {
      "bufferView": 1,
      "byteOffset": 104816,
      "componentType": 5126,
      "count": 712,
      "max": [
        0.9848710298538208,
        0.9548887014389038
      ],
      "min": [
        0.01512890588492155,
        0.015128950588405132
      ],
      "type": "VEC2"
    },
    {
      "bufferView": 1,
      "byteOffset": 110512,
      "componentType": 5126,
      "count": 712,
      "max": [
        0.9848710298538208,
        0.9548887014389038
      ],
      "min": [
        0.01512890588492155,
        0.015128950588405132
      ],
      "type": "VEC2"
    },
    {
      "bufferView": 0,
      "byteOffset": 35076,
      "componentType": 5125,
      "count": 2484,
      "type": "SCALAR"
    },
    {
      "bufferView": 2,
      "byteOffset": 116208,
      "componentType": 5126,
      "count": 116,
      "max": [
        1.0074398517608643,
        0.00999976135790348,
        1.9999998807907104
      ],
      "min": [
        -1.0022748708724976,
        -0.12099876999855042,
        0.001811917987652123
      ],
      "type": "VEC3"
    },
    {
      "bufferView": 2,
      "byteOffset": 117600,
      "componentType": 5126,
      "count": 116,
      "max": [
        1.0,
        1.0,
        1.0
      ],
      "min": [
        -1.0,
        -1.0,
        -0.9265258312225342
      ],
      "type": "VEC3"
    },
    {
      "bufferView": 1,
      "byteOffset": 116208,
      "componentType": 5126,
      "count": 116,
      "max": [
        0.9926401376724243,
        0.9936448931694031
      ],
      "min": [
        0.006355093326419592,
        0.006355081219226122
      ],
      "type": "VEC2"
    },
    {
      "bufferView": 0,
      "byteOffset": 45012,
      "componentType": 5125,
      "count": 276,
      "type": "SCALAR"
    },
    {
      "bufferView": 2,
      "byteOffset": 118992,
      "componentType": 5126,
      "count": 264,
      "max": [
        0.4656601548194885,
        0.2386864870786667,
        0.16959786415100098
      ],
      "min": [
        -0.02571563608944416,
        -0.667969286441803,
        -0.16959786415100098
      ],
      "type": "VEC3"
    },
    {
      "bufferView": 2,
      "byteOffset": 122160,
      "componentType": 5126,
      "count": 264,
      "max": [
        1.0,
        1.0,
        1.0
      ],
      "min": [
        -1.0,
        -1.0,
        -1.0
      ],
      "type": "VEC3"
    },
    {
      "bufferView": 3,
      "byteOffset": 77472,
      "componentType": 5126,
      "count": 264,
      "max": [
        1.0,
        0.9969708323478699,
        3.757485842470487e-07,
        1.0
      ],
      "min": [
        -1.0,
        -0.9969708919525146,
        -1.0,
        1.0
      ],
      "type": "VEC4"
    },
    {
      "bufferView": 1,
      "byteOffset": 117136,
      "componentType": 5126,
      "count": 264,
      "max": [
        0.9717682600021362,
        0.9797282814979553
      ],
      "min": [
        0.020271701738238335,
        0.02027169242501259
      ],
      "type": "VEC2"
    },
    {
      "bufferView": 1,
      "byteOffset": 119248,
      "componentType": 5126,
      "count": 264,
      "max": [
        0.9717682600021362,
        0.9797282814979553
      ],
      "min": [
        0.020271701738238335,
        0.02027169242501259
      ],
      "type": "VEC2"
    },
    {
      "bufferView": 1,
      "byteOffset": 121360,
      "componentType": 5126,
      "count": 264,
      "max": [
        0.9717682600021362,
        0.9797282814979553
      ],
      "min": [
        0.020271701738238335,
        0.02027169242501259
      ],
      "type": "VEC2"
    },
    {
      "bufferView": 0,
      "byteOffset": 46116,
      "componentType": 5125,
      "count": 396,
      "type": "SCALAR"
    }
  ],
  "asset": {
    "extras": {
      "author": "vesty (https://sketchfab.com/vesty)",
      "license": "CC-BY-4.0 (http://creativecommons.org/licenses/by/4.0/)",
      "source": "https://sketchfab.com/3d-models/typewriter-low-poly-game-ready-7195c69975cf481b9280abdd8efd7e01",
      "title": "TypeWriter| Low Poly| Game Ready"
    },
    "generator": "Sketchfab-15.70.0",
    "version": "2.0"
  },
  "bufferViews": [
    {
      "buffer": 0,
      "byteLength": 47700,
      "name": "floatBufferViews",
      "target": 34963
    },
    {
      "buffer": 0,
      "byteLength": 123472,
      "byteOffset": 47700,
      "byteStride": 8,
      "name": "floatBufferViews",
      "target": 34962
    },
    {
      "buffer": 0,
      "byteLength": 125328,
      "byteOffset": 171172,
      "byteStride": 12,
      "name": "floatBufferViews",
      "target": 34962
    },
    {
      "buffer": 0,
      "byteLength": 81696,
      "byteOffset": 296500,
      "byteStride": 16,
      "name": "floatBufferViews",
      "target": 34962
    }
  ],
  "buffers": [
    {
      "byteLength": 378196,
      "uri": "scene.bin"
    }
  ],
  "images": [
    {
      "uri": "textures/Material_baseColor.png"
    },
    {
      "uri": "textures/Material_metallicRoughness.png"
    },
    {
      "uri": "textures/Material_normal.png"
    },
    {
      "uri": "textures/Material.001_baseColor.png"
    },
    {
      "uri": "textures/Material.001_metallicRoughness.png"
    },
    {
      "uri": "textures/Material.001_normal.png"
    },
    {
      "uri": "textures/Material.002_baseColor.png"
    },
    {
      "uri": "textures/Material.002_metallicRoughness.png"
    },
    {
      "uri": "textures/Material.002_normal.png"
    }
  ],
  "materials": [
    {
      "doubleSided": true,
      "name": "Plane__0",
      "pbrMetallicRoughness": {
        "baseColorFactor": [
          0.9139942980694873,
          0.8502099441639658,
          0.5454784061122643,
          1.0
        ],
        "metallicFactor": 0.0,
        "roughnessFactor": 0.6
      }
    },
    {
      "doubleSided": true,
      "name": "Material",
      "normalTexture": {
        "index": 2
      },
      "occlusionTexture": {
        "index": 1
      },
      "pbrMetallicRoughness": {
        "baseColorTexture": {
          "index": 0
        },
        "metallicRoughnessTexture": {
          "index": 1
        }
      }
    },
    {
      "doubleSided": true,
      "name": "Material.001",
      "normalTexture": {
        "index": 5
      },
      "occlusionTexture": {
        "index": 4
      },
      "pbrMetallicRoughness": {
        "baseColorTexture": {
          "index": 3
        },
        "metallicRoughnessTexture": {
          "index": 4
        }
      }
    },
    {
      "doubleSided": true,
      "name": "Material.002",
      "normalTexture": {
        "index": 8
      },
      "occlusionTexture": {
        "index": 7
      },
      "pbrMetallicRoughness": {
        "baseColorTexture": {
          "index": 6
        },
        "metallicRoughnessTexture": {
          "index": 7
        }
      }
    }
  ],
  "meshes": [
    {
      "name": "Cube_Material_0",
      "primitives": [
        {
          "attributes": {
            "NORMAL": 1,
            "POSITION": 0,
            "TANGENT": 2,
            "TEXCOORD_0": 3,
            "TEXCOORD_1": 4,
            "TEXCOORD_2": 5
          },
          "indices": 6,
          "material": 1,
          "mode": 4
        }
      ]
    },
    {
      "name": "Cube.001_Material.001_0",
      "primitives": [
        {
          "attributes": {
            "NORMAL": 8,
            "POSITION": 7,
            "TANGENT": 9,
            "TEXCOORD_0": 10,
            "TEXCOORD_1": 11,
            "TEXCOORD_2": 12
          },
          "indices": 13,
          "material": 2,
          "mode": 4
        }
      ]
    },
    {
      "name": "Plane__0",
      "primitives": [
        {
          "attributes": {
            "NORMAL": 15,
            "POSITION": 14,
            "TEXCOORD_0": 16
          },
          "indices": 17,
          "material": 0,
          "mode": 4
        }
      ]
    },
    {
      "name": "Cube.003_Material.002_0",
      "primitives": [
        {
          "attributes": {
            "NORMAL": 19,
            "POSITION": 18,
            "TANGENT": 20,
            "TEXCOORD_0": 21,
            "TEXCOORD_1": 22,
            "TEXCOORD_2": 23
          },
          "indices": 24,
          "material": 3,
          "mode": 4
        }
      ]
    }
  ],
  "nodes": [
    {
      "children": [
        1
      ],
      "matrix": [
        -1.0,
        2.832769343193999e-16,
        8.07538625896079e-32,
        0.0,
        2.770065955897755e-32,
        3.828568672208042e-16,
        -1.0,
        0.0,
        -2.832769343193999e-16,
        -1.0,
        -3.828568672208042e-16,
        0.0,
        0.0,
        0.0,
        0.0,
        1.0
      ],
      "name": "Sketchfab_model"
    },
    {
      "children": [
        2
      ],
      "matrix": [
        0.009999999776482582,
        0.0,
        0.0,
        0.0,
        0.0,
        -0.009999999776482582,
        0.0,
        0.0,
        0.0,
        0.0,
        -0.009999999776482582,
        0.0,
        0.0,
        0.0,
        0.0,
        1.0
      ],
      "name": "ead55c8a69af423f8f17505b3d936dc6.fbx"
    },
    {
      "children": [
        3,
        5,
        7,
        9
      ],
      "name": "RootNode"
    },
    {
      "children": [
        4
      ],
      "matrix": [
        -10.000001907348597,
        -8.742279647913687e-07,
        0.0,
        0.0,
        8.742279647913687e-07,
        -10.000001907348597,
        0.0,
        0.0,
        0.0,
        0.0,
        10.000001907348633,
        0.0,
        -0.09573474526405334,
        -1.8968284130096436,
        5.025259971618652,
        1.0
      ],
      "name": "Cube"
    },
    {
      "mesh": 0,
      "name": "Cube_Material_0"
    },
    {
      "children": [
        6
      ],
      "matrix": [
        -2.5358400819785195e-06,
        -3.9637499260123756,
        -9.180889100245507,
        0.0,
        -3.926473501684049e-06,
        -9.1808891002447,
        3.963749926013111,
        0.0,
        -10.00000190734754,
        4.609994491689831e-06,
        7.717706036349301e-07,
        0.0,
        -0.09573474526405334,
        -14.828479766845703,
        7.299292087554932,
        1.0
      ],
      "name": "Cube.001"
    },
    {
      "mesh": 1,
      "name": "Cube.001_Material.001_0"
    },
    {
      "children": [
        8
      ],
      "matrix": [
        -10.000001907348597,
        -8.742279647913686e-07,
        -3.308723081300835e-23,
        0.0,
        6.845911565666681e-07,
        -7.8308097511550265,
        -6.219200655083515,
        0.0,
        5.436998094297718e-07,
        -6.219200655083491,
        7.830809751155054,
        0.0,
        -0.09573474526405334,
        -10.733991622924805,
        5.1293625831604,
        1.0
      ],
      "name": "Plane"
    },
    {
      "mesh": 2,
      "name": "Plane__0"
    },
    {
      "children": [
        10
      ],
      "matrix": [
        2.1972084383702395,
        9.75563079963678,
        0.0,
        0.0,
        -9.75563079963678,
        2.1972084383702395,
        0.0,
        0.0,
        0.0,
        0.0,
        10.000001907348633,
        0.0,
        -2.360506296157837,
        -7.637733459472656,
        8.43516731262207,
        1.0
      ],
      "name": "Cube.003"
    },
    {
      "mesh": 3,
      "name": "Cube.003_Material.002_0"
    }
  ],
  "samplers": [
    {
      "magFilter": 9729,
      "minFilter": 9987,
      "wrapS": 10497,
      "wrapT": 10497
    }
  ],
  "scene": 0,
  "scenes": [
    {
      "name": "Sketchfab_Scene",
      "nodes": [
        0
      ]
    }
  ],
  "textures": [
    {
      "sampler": 0,
      "source": 0
    },
    {
      "sampler": 0,
      "source": 1
    },
    {
      "sampler": 0,
      "source": 2
    },
    {
      "sampler": 0,
      "source": 3
    },
    {
      "sampler": 0,
      "source": 4
    },
    {
      "sampler": 0,
      "source": 5
    },
    {
      "sampler": 0,
      "source": 6
    },
    {
      "sampler": 0,
      "source": 7
    },
    {
      "sampler": 0,
      "source": 8
    }
  ]
}
